# xmcd CD database file
#
# Track frame offsets:
#	150
#	19470
#	44617
#	75250
#	99056
#	143327
#	178753
#
# Disc length: 2655 seconds
#
# Revision: 1
# Processed by: cddbd v1.5.1PL0 Copyright (c) Steve Scherf et al.
# Submitted via: CDex 1.50beta10
#
DISCID=4a0a5d07
DTITLE=Luther Allison - South Side Safari
DYEAR=1999
DGENRE=Blues
TTITLE0=Strokes
TTITLE1=You're Gonna Need Me
TTITLE2=You Upset Me baby
TTITLE3=Movin' On Up
TTITLE4=The Thrill Is Gone
TTITLE5=Cat Blues
TTITLE6=Messin' With The Kid
EXTD=YEAR: 1999
EXTT0=
EXTT1=
EXTT2=
EXTT3=
EXTT4=
EXTT5=
EXTT6=
PLAYORDER=
